<?xml version="1.0" encoding="UTF-8"?>
<svg width="28px" height="28px" viewBox="0 0 28 28" version="1.1" xmlns="http://www.w3.org/2000/svg" xmlns:xlink="http://www.w3.org/1999/xlink">
    <title>Group 2@2x</title>
    <g id="[WIP]-Rewards" stroke="none" stroke-width="1" fill="none" fill-rule="evenodd">
        <g id="Rewards-/-Program-detail-/-Multiple-challenges-Copy-14" transform="translate(-166, -371)">
            <g id="Group-2" transform="translate(166, 371)">
                <rect id="Rectangle" x="0" y="0" width="28" height="28"></rect>
                <g id="Group-28" transform="translate(4, 6)" fill="#FFFFFF">
                    <path d="M17.1,0 C18.1545,0 19,0.834375 19,1.875 L19,7.627 L17.1,8.17 L17.1,7.5 L1.9,7.5 L1.9,13.125 L9.508,13.125 L7.433,15 L1.9,15 C0.895714286,15 0.0809977324,14.2431973 0.0056829716,13.2721898 L0,13.125 L0.0095,1.875 C0.0095,0.834375 0.8455,0 1.9,0 Z M17.1,1.875 L1.9,1.875 L1.9,3.75 L17.1,3.75 L17.1,1.875 Z" id="Combined-Shape"></path>
                    <g id="show_chart_FILL0_wght400_GRAD0_opsz24-Copy-3" transform="translate(9, 8)" fill-rule="nonzero">
                        <polygon id="Path" points="1.08651721 9 0 7.88568868 5.43258604 2.31413207 8.32996526 5.28562893 13.019868 -5.21240353e-14 12.7552256 2.3125 8.32996526 7.51425157 5.43258604 4.54275472"></polygon>
                    </g>
                    <polygon id="Path-6" points="17.3128487 9.68907997 22.7309466 7.72932997 21.5287498 13.3299445"></polygon>
                </g>
            </g>
        </g>
    </g>
</svg>