<svg width="34" height="8" viewBox="0 0 34 8" fill="none" xmlns="http://www.w3.org/2000/svg">
<path d="M16.7617 0C16.7367 0.336401 16.7367 0.677219 16.6815 1.00847C16.6101 1.43615 16.3642 1.61281 15.9181 1.61355C14.2633 1.61428 12.6086 1.61355 10.9538 1.61355C10.8206 1.61355 10.6873 1.61355 10.5305 1.61355V6.21864H15.0525V4.76998C14.3855 4.76998 13.7164 4.77439 13.048 4.76703C12.8824 4.76482 12.7109 4.742 12.5519 4.69489C12.1308 4.56902 11.9814 4.35849 11.9799 3.93302C11.9799 3.68863 11.9814 3.44425 11.9844 3.19986C11.9844 3.17704 11.9969 3.15496 12.0167 3.08503C12.292 3.08503 12.5813 3.08503 12.8706 3.08503C13.8386 3.08503 14.8073 3.08355 15.7753 3.08503C16.3995 3.0865 16.7573 3.4413 16.7587 4.0611C16.761 4.95327 16.7691 5.84617 16.7565 6.73833C16.7433 7.63638 16.4378 7.8712 15.6347 7.86089C13.6737 7.83586 11.7127 7.85353 9.75174 7.85279C9.1393 7.85279 8.88903 7.60473 8.88903 7.00259C8.88903 4.96063 8.89933 2.91867 8.88093 0.87744C8.87725 0.448289 9.02079 0.168569 9.40356 0C11.8563 0 14.309 0 16.7617 0Z" fill="white"/>
<path d="M33.7592 7.11963C33.7379 7.12994 33.7069 7.13362 33.6959 7.15055C33.2498 7.82924 32.5954 7.88445 31.8483 7.86678C30.0117 7.82335 28.1736 7.85279 26.3363 7.85279H25.8895C25.8895 7.55688 25.8468 7.27274 25.899 7.00627C25.994 6.51823 26.2281 6.22232 26.8074 6.23115C28.4364 6.25691 30.0654 6.23998 31.6952 6.23998H32.1177V4.76998H31.7194C30.1147 4.76998 28.51 4.76262 26.9053 4.77366C26.3378 4.77734 25.8924 4.49983 25.8887 3.75415C25.8836 2.83769 25.8902 1.92124 25.8865 1.00479C25.8843 0.550608 26.0382 0.195068 26.4754 0H33.7599V1.17409C33.542 1.49724 33.2594 1.62901 32.8494 1.62312C31.2336 1.59956 29.6171 1.61355 28.0006 1.61355H27.6017V3.08355H28.0235C29.5538 3.08355 31.0849 3.09533 32.6153 3.07619C33.0746 3.0703 33.4596 3.16526 33.7599 3.52301V7.11963H33.7592Z" fill="white"/>
<path d="M0.353035 0.146484C0.498784 0.155318 0.645269 0.170776 0.791019 0.170776C3.10681 0.172248 5.42187 0.171512 7.73766 0.171512C7.87164 0.171512 8.00487 0.171512 8.21393 0.171512C8.1889 0.504969 8.20509 0.820759 8.13369 1.1152C8.01591 1.60398 7.79655 1.75046 7.29894 1.7512C5.68172 1.75341 4.06449 1.7512 2.44726 1.75267C1.96437 1.75267 1.96364 1.75414 1.9629 2.23261C1.9629 3.83365 1.96364 5.43468 1.96217 7.03571C1.96217 7.63638 1.65006 7.9529 1.04718 7.97425C0.81531 7.98235 0.583436 7.99118 0.351562 8.00001V0.146484H0.353035Z" fill="white"/>
<path d="M25.2232 0C25.2232 0.305485 25.2261 0.610969 25.221 0.915718C25.2143 1.33824 24.9398 1.60987 24.5114 1.61208C23.7311 1.61576 22.9501 1.61281 22.1315 1.61281C22.1315 1.77623 22.1315 1.90725 22.1315 2.03755C22.1315 3.68643 22.1315 5.33531 22.1315 6.98419C22.1315 7.56277 21.8474 7.84911 21.2762 7.85132C21.0347 7.85206 20.7925 7.85132 20.5275 7.85132V1.61355C20.2287 1.61355 19.9541 1.61355 19.6788 1.61355C19.1643 1.61355 18.6505 1.61649 18.1359 1.61281C17.7075 1.60913 17.433 1.33898 17.4263 0.916454C17.4219 0.610969 17.4249 0.305485 17.4241 0.000736107C20.0233 0 22.6232 0 25.2232 0Z" fill="white"/>
<path d="M6.50547 2.96108C5.38953 4.07407 4.29126 5.1694 3.19372 6.26473C2.50693 5.77374 2.45246 4.15431 3.08404 3.3917C4.11386 2.14915 5.65526 2.197 6.5062 2.96108H6.50547Z" fill="white"/>
</svg>
