<?xml version="1.0" encoding="UTF-8"?>
<svg width="16px" height="20px" viewBox="0 0 16 20" version="1.1" xmlns="http://www.w3.org/2000/svg" xmlns:xlink="http://www.w3.org/1999/xlink">
    <title>Icons / Filled / Communication / swap calls</title>
    <g id="Saque-FGTS" stroke="none" stroke-width="1" fill="none" fill-rule="evenodd">
        <g id="Icons-/-Filled-/-Communication-/-swap-calls" transform="translate(-4.000000, -2.000000)">
            <rect id="Icon-Bounds" x="0" y="0" width="24" height="24"></rect>
            <path d="M8,16 L16,16 L16,18 L8,18 L8,16 Z M8,12 L16,12 L16,14 L8,14 L8,12 Z M14,2 L6,2 C4.9,2 4,2.9 4,4 L4,20 C4,21.1 4.89,22 5.99,22 L18,22 C19.1,22 20,21.1 20,20 L20,8 L14,2 Z M18,20 L6,20 L6,4 L13,4 L13,9 L18,9 L18,20 Z" id="Icon" fill="#FFB684"></path>
        </g>
    </g>
</svg>