<?xml version="1.0" encoding="UTF-8"?>
<svg width="20px" height="20px" viewBox="0 0 20 20" version="1.1" xmlns="http://www.w3.org/2000/svg" xmlns:xlink="http://www.w3.org/1999/xlink">
    <title>Icons / Filled / Action / accessibility</title>
    <g id="Landing-Page" stroke="none" stroke-width="1" fill="none" fill-rule="evenodd">
        <g id="Module/Small-Card-2-Copy-2" transform="translate(-42.000000, -22.000000)">
            <g id="Icons-/-Filled-/-Action-/-accessibility" transform="translate(40.000000, 20.000000)">
                <rect id="Icon-Bounds" x="0" y="0" width="24" height="24"></rect>
                <path d="M20,12 C20,7.59 16.41,4 12,4 C7.59,4 4,7.59 4,12 C4,16.41 7.59,20 12,20 C16.41,20 20,16.41 20,12 M22,12 C22,17.52 17.52,22 12,22 C6.48,22 2,17.52 2,12 C2,6.48 6.48,2 12,2 C17.52,2 22,6.48 22,12 M15.89,14.54 C15.89,17.17 13.39,17.67 12.87,17.76 L12.87,19 L11.12,19 L11.12,17.71 C10.38,17.53 8.73,16.94 8.1,14.75 L9.76,14.08 C9.82,14.3 10.34,16.17 12.16,16.17 C13.09,16.17 14.14,15.69 14.14,14.56 C14.14,13.6 13.44,13.09 11.86,12.53 C10.76,12.13 8.51,11.49 8.51,9.22 C8.51,9.11 8.53,6.82 11.13,6.26 L11.13,5 L12.88,5 L12.88,6.25 C14.72,6.57 15.39,8.04 15.54,8.48 L13.96,9.15 C13.85,8.8 13.37,7.81 12.06,7.81 C11.36,7.81 10.25,8.18 10.25,9.2 C10.25,10.14 11.11,10.51 12.89,11.1 C15.29,11.93 15.9,13.15 15.89,14.54" id="Icon" fill="#FFB684"></path>
            </g>
        </g>
    </g>
</svg>