<?xml version="1.0" encoding="UTF-8"?>
<svg width="20px" height="22px" viewBox="0 0 20 22" version="1.1" xmlns="http://www.w3.org/2000/svg" xmlns:xlink="http://www.w3.org/1999/xlink">
    <title>Icons / Filled / Action / accessibility</title>
    <g id="Pix" stroke="none" stroke-width="1" fill="none" fill-rule="evenodd">
        <g id="Icons-/-Filled-/-Action-/-accessibility" transform="translate(-2.000000, -1.000000)">
            <rect id="Icon-Bounds" x="0" y="0" width="24" height="24"></rect>
            <path d="M16.5,1 L4.5,1 C3.4,1 2.5,1.9 2.5,3 L2.5,17 L4.5,17 L4.5,3 L16.5,3 L16.5,1 Z M19.5,5 L8.5,5 C7.4,5 6.5,5.9 6.5,7 L6.5,21 C6.5,22.1 7.4,23 8.5,23 L19.5,23 C20.6,23 21.5,22.1 21.5,21 L21.5,7 C21.5,5.9 20.6,5 19.5,5 Z M19.5,21 L8.5,21 L8.5,7 L19.5,7 L19.5,21 Z" id="🎨-Icon-|-Color" fill="#FFFFFF"></path>
        </g>
    </g>
</svg>