<?xml version="1.0" encoding="utf-8"?>
<!-- Generator: Adobe Illustrator 27.7.0, SVG Export Plug-In . SVG Version: 6.00 Build 0)  -->
<svg version="1.1" id="chatbot" xmlns="http://www.w3.org/2000/svg" xmlns:xlink="http://www.w3.org/1999/xlink" x="0px" y="0px"
	 viewBox="0 0 26 20" style="enable-background:new 0 0 26 20;" xml:space="preserve">
<style type="text/css">
	.st0{fill-rule:evenodd;clip-rule:evenodd;fill:#FFFFFF;}
</style>
<path id="chatbot_00000067225048889591353050000006055132734037042340_" class="st0" d="M20.9,0h-16c-1.1,0-2,0.9-2,2v18l4-4h14
	c1.1,0,2-0.9,2-2V2C22.9,0.9,22,0,20.9,0z M20.9,14h-14l-2,2V2h16V14z M10,5.1h2v4h-2V5.1z M16,5.1h2v4h-2V5.1z M0,6.1h2v5H0V6.1z
	 M24,6.1h2v5h-2V6.1z"/>
</svg>
