<?xml version="1.0" encoding="UTF-8"?>
<svg width="24px" height="24px" viewBox="0 0 24 24" version="1.1" xmlns="http://www.w3.org/2000/svg" xmlns:xlink="http://www.w3.org/1999/xlink">
    <title>Icons / Filled / Action / accessibility 5</title>
    <g id="Landing-Page" stroke="none" stroke-width="1" fill="none" fill-rule="evenodd">
        <g id="Icons-/-Filled-/-Action-/-accessibility">
            <rect id="Icon-Bounds" x="0" y="0" width="24" height="24"></rect>
            <path d="M15,18 L3,18 L3,17.01 C3.2,16.29 6.3,15 9,15 C11.7,15 14.8,16.29 15,17 L15,18 Z M9,13 C6.33,13 1,14.34 1,17 L1,20 L17,20 L17,17 C17,14.34 11.67,13 9,13 L9,13 Z M9,6 C10.1,6 11,6.9 11,8 C11,9.1 10.1,10 9,10 C7.9,10 7,9.1 7,8 C7,6.9 7.9,6 9,6 L9,6 Z M9,12 C11.21,12 13,10.21 13,8 C13,5.79 11.21,4 9,4 C6.79,4 5,5.79 5,8 C5,10.21 6.79,12 9,12 L9,12 Z M15,12 C17.21,12 19,10.21 19,8 C19,5.79 17.21,4 15,4 C14.53,4 14.09,4.1 13.67,4.24 C14.5,5.27 15,6.58 15,8 C15,9.42 14.5,10.73 13.67,11.76 C14.09,11.9 14.53,12 15,12 L15,12 Z M16.67,13.13 C18.04,14.06 19,15.32 19,17 L19,20 L23,20 L23,17 C23,14.82 19.43,13.53 16.67,13.13 L16.67,13.13 Z" id="🎨-Icon-|-Color" fill="#FFB684"></path>
        </g>
    </g>
</svg>