<?xml version="1.0" encoding="UTF-8"?>
<svg width="24px" height="24px" viewBox="0 0 24 24" version="1.1" xmlns="http://www.w3.org/2000/svg" xmlns:xlink="http://www.w3.org/1999/xlink">
    <title>Assets/Pix</title>
    <defs>
        <polygon id="path-1" points="0 0 20.5038723 0 20.5038723 9.06893476 0 9.06893476"></polygon>
    </defs>
    <g id="Assets/Pix" stroke="none" stroke-width="1" fill="none" fill-rule="evenodd">
        <g id="Group-10" transform="translate(12.000000, 12.000000) scale(-1, 1) translate(-12.000000, -12.000000) translate(1.748064, 2.035324)">
            <path d="M16.0330297,15.353931 C16.0326244,15.3589787 16.0322697,15.364387 16.0319657,15.3697952 L16.1704316,15.4981507 L16.2131416,15.5237497 L16.0340936,15.3425737 C16.033739,15.3461792 16.0333843,15.3501453 16.0330297,15.353931" id="Fill-1" fill="#FFB684"></path>
            <path d="M11.1458516,2.21899226 C11.6123677,2.68049335 12.0735077,3.14741064 12.540104,3.60883148 C12.6087896,3.67675475 12.6015278,3.70311363 12.5196027,3.7492517 C12.2873476,3.88000298 12.0846209,4.05019229 11.8965381,4.23899731 C11.3604939,4.77720795 10.8210797,5.31204851 10.2873625,5.85250587 C10.2149859,5.92580523 10.1789581,5.9215525 10.1090689,5.85082083 C9.59733752,5.3328307 9.08031028,4.82013642 8.56653275,4.30415229 C8.38523019,4.12208744 8.19650541,3.94945081 7.97608579,3.81577076 C7.90286667,3.77135785 7.8971295,3.73938216 7.96067968,3.67639367 C8.45239117,3.18921574 8.93852597,2.69642101 9.43140094,2.21048681 C9.66546139,1.97971621 9.95432584,1.86810219 10.2944236,1.86649739 C10.6181524,1.86766087 10.9085013,1.98416954 11.1458516,2.21899226 M9.02009006,7.39744925 C9.29571489,7.67094772 9.57137984,7.94448631 9.84604179,8.21898778 C10.0845154,8.45726083 10.1934815,8.457983 10.429227,8.22239799 C10.6903284,7.96153734 10.9517908,7.70099765 11.2132132,7.44041784 C11.8988249,6.75713305 12.6078267,6.0505385 13.2986139,5.34996197 C13.9816981,4.65716872 14.7867874,4.29135399 15.694544,4.26034118 C15.4791393,4.04477608 15.2632132,3.82856906 15.047287,3.61232193 C14.1384472,2.70231866 13.1987551,1.76134271 12.271099,0.839664502 C11.747813,0.319748608 11.1198538,0.0385069674 10.4047137,0.00372287291 C9.56784928,-0.0367181504 8.83156589,0.252467263 8.21560256,0.864057501 C7.64986955,1.42573838 7.07699518,1.99957564 6.52293711,2.55451635 C6.28069217,2.79716249 6.03840711,3.03980863 5.79596157,3.28225417 L4.79388276,4.2843731 C5.64711614,4.36922703 6.39996912,4.74422926 7.03727631,5.40296057 C7.68838481,6.0759345 8.36537076,6.74774496 9.02009006,7.39744925" id="Fill-3" fill="#FFB684"></path>
            <g id="Group-7" transform="translate(0.000000, 5.426948)">
                <mask id="mask-2" fill="white">
                    <use xlink:href="#path-1"></use>
                </mask>
                <g id="Clip-6"></g>
                <path d="M4.53236013,6.80246086 C4.23823995,6.83331319 4.0275695,6.73931188 3.82857399,6.51853118 C3.50135476,6.15548473 3.14063527,5.82264869 2.79568297,5.47544966 C2.24407223,4.92026823 2.24567703,4.15269119 2.79941414,3.5959852 C3.16759595,3.22587762 3.5430395,2.86279105 3.90371887,2.48558222 C4.04811097,2.33461042 4.18945395,2.2205892 4.40209029,2.28598491 C4.72626039,2.23455099 4.95939808,2.36618491 5.17672846,2.59025546 C5.78025457,3.21251764 6.39734125,3.82178091 7.01490938,4.43020167 C7.1059418,4.51987001 7.09619263,4.56315955 7.01153929,4.64689013 C6.36849493,5.28263264 5.72789788,5.92094284 5.09303801,6.56482973 C4.93400208,6.7261525 4.75017195,6.77963255 4.53236013,6.80246086 M16.5998732,6.58974429 C16.4555212,6.74071608 16.3141783,6.8547373 16.1015419,6.7893416 C15.7773317,6.84077552 15.5442341,6.7091416 15.3269038,6.48507104 C14.7233375,5.86280887 14.106291,5.2535456 13.4887228,4.64512484 C13.3976904,4.5554565 13.4073995,4.51216695 13.4920929,4.42843638 C14.1351373,3.79269387 14.7757343,3.15438367 15.4105541,2.51049678 C15.5696301,2.34913389 15.7534603,2.29569396 15.9712721,2.27286565 C16.2653923,2.24201332 16.4760627,2.33601463 16.6750582,2.55679533 C17.0022775,2.91984178 17.3629969,3.2526377 17.7079492,3.59983672 C18.25956,4.15505827 18.2579552,4.92263532 17.7042181,5.47934131 C17.3360363,5.84944889 16.9605927,6.21253546 16.5998732,6.58974429 M20.4707773,4.1485187 C20.41489,3.66828155 20.2638781,3.22756266 20.004221,2.84180826 C19.9164383,2.71137793 19.8162987,2.58716622 19.7030799,2.46989528 C18.9251117,1.66388321 18.1274045,0.87692818 17.34061,0.0793413304 C17.2701992,0.00796773858 17.1922058,0.00303297085 17.1041824,0.00327369123 C16.6906248,0.00447729311 16.2767462,0.0148282693 15.8636701,0.00134792821 C15.1798236,-0.0209989468 14.6228769,0.235247895 14.1472937,0.715485047 C13.1851744,1.68703249 12.2152719,2.65083676 11.2474556,3.61668715 C11.1627221,3.70122012 11.0761029,3.78643514 10.9790524,3.85552189 C10.3779736,4.28344248 9.60353607,4.21471681 9.06247691,3.67738881 C8.05446033,2.676313 7.05097732,1.67062338 6.04793563,0.664532567 C5.7125319,0.32808572 5.31835228,0.101808566 4.84682118,0.0396625882 C4.33645386,-0.0275786371 3.82131226,0.0243768443 3.30849761,0.0111773436 C3.23018325,0.0091312204 3.18978235,0.0638549861 3.1434838,0.110113419 C2.40286744,0.850448938 1.65478874,1.58344249 0.924282639,2.33360742 C-0.145679317,3.43225522 -0.299339158,5.02349716 0.529420981,6.23925542 C0.610664108,6.35845213 0.700934249,6.47419851 0.801154166,6.58533108 C1.55492991,7.42143319 2.38188464,8.1915378 3.1740954,8.99313665 C3.23303178,9.05275507 3.29782568,9.0608192 3.37313104,9.06045812 C3.67326923,9.0590138 3.97412958,9.04665682 4.27342525,9.06274496 C5.04501429,9.10430935 5.66230158,8.81821318 6.19722238,8.26535871 C7.12002394,7.31162458 8.06950535,6.38364753 9.00899686,5.44608178 C9.67486955,4.7816133 10.578253,4.78450194 11.2467335,5.45226027 C12.2234965,6.42802032 13.2001392,7.40394084 14.1755382,8.38106497 C14.6306201,8.83694925 15.1681487,9.08465052 15.8222662,9.06816117 C16.2422029,9.05756947 16.6626611,9.0626246 17.0827583,9.06852225 C17.2043622,9.07020729 17.2944318,9.03923461 17.3826558,8.95016807 C18.1008851,8.22519853 18.8250924,7.50620688 19.5452074,6.78316311 C19.8538912,6.47319551 20.0989044,6.11945691 20.2706584,5.71456524 C20.3825532,5.45081594 20.4168158,5.16664554 20.5038763,4.89675788 L20.5038763,4.21632161 C20.4924822,4.19377414 20.4735054,4.17206918 20.4707773,4.1485187" id="Fill-5" fill="#FFB684" mask="url(#mask-2)"></path>
            </g>
            <path d="M9.35777261,17.7102312 C8.89125651,17.2487301 8.43011651,16.7818128 7.96352018,16.320392 C7.89483463,16.2524687 7.90209637,16.2261098 7.98402153,16.1799717 C8.21627658,16.0492204 8.41900326,15.8790311 8.60708611,15.6902261 C9.14313027,15.1520155 9.68254451,14.6171749 10.2162617,14.0767176 C10.2886383,14.0034182 10.3246661,14.0076709 10.3945553,14.0784026 C10.9062867,14.5963927 11.4233139,15.109087 11.9370914,15.6250711 C12.118394,15.807136 12.3071188,15.9797726 12.5275384,16.1134527 C12.6007575,16.1578656 12.6064947,16.1898413 12.5429445,16.2528298 C12.051233,16.7400077 11.5650982,17.2328024 11.0722233,17.7187366 C10.8381628,17.9495072 10.5492984,18.0611212 10.2092006,18.062726 C9.88547179,18.0615626 9.5951229,17.9450539 9.35777261,17.7102312 M11.2625528,12.5573307 C10.9869681,12.2840729 10.7113834,12.0107349 10.4368418,11.7364341 C10.1921094,11.4919424 10.0650091,11.4925843 9.81855153,11.7390017 C9.52041934,12.0371339 9.22240751,12.3353865 8.92443581,12.6336791 C8.25768048,13.3010764 7.56825732,13.9911415 6.8881019,14.6680873 C6.28987164,15.263469 5.59001726,15.5942188 4.805991,15.6524731 L5.1777435,16.0244262 C6.17962171,17.027147 7.21560197,18.0639296 8.23661745,19.0813744 C8.47103898,19.3149534 8.75256146,19.5123442 9.07336148,19.6679699 C9.24820471,19.7527436 9.44150318,19.801008 9.6461155,19.8521611 C9.74144077,19.8759122 9.83957444,19.9004656 9.93810931,19.9293521 L10.4929698,19.9293521 C10.5211742,19.9157915 10.5552361,19.9042369 10.5949951,19.8999842 C11.2513192,19.8302555 11.8389979,19.5257844 12.3919727,18.9691987 C13.1428598,18.2134972 13.9087919,17.4480064 14.6495688,16.7077512 C14.9905893,16.3669312 15.3316098,16.0261113 15.6723897,15.6850506 C14.7460174,15.6426839 13.9309382,15.2626265 13.2455672,14.5526217 C12.5951006,13.8788053 11.9176733,13.207035 11.2625528,12.5573307" id="Fill-8" fill="#FFB684"></path>
        </g>
    </g>
</svg>