<?xml version="1.0" encoding="UTF-8"?>
<svg width="56px" height="56px" viewBox="0 0 56 56" version="1.1" xmlns="http://www.w3.org/2000/svg" xmlns:xlink="http://www.w3.org/1999/xlink">
    <title>Button/FAB/Standart/Light</title>
    <defs>
        <rect id="path-1" x="0" y="0" width="56" height="56" rx="28"></rect>
        <rect id="path-3" x="0" y="0" width="56" height="56" rx="28"></rect>
    </defs>
    <g id="Button/FAB/Standart/Light" stroke="none" stroke-width="1" fill="none" fill-rule="evenodd">
        <mask id="mask-2" fill="white">
            <use xlink:href="#path-1"></use>
        </mask>
        <g id="â˜ï¸-Elevation">
            <use fill="#121212" xlink:href="#path-1"></use>
            <use fill-opacity="0.09" fill="#FFFFFF" xlink:href="#path-1"></use>
        </g>
        <rect id="ðŸŽ¨-FAB-Color" fill="#FFB684" mask="url(#mask-2)" x="-3.55271368e-15" y="-3.55271368e-15" width="56" height="56"></rect>
        <mask id="mask-4" fill="white">
            <use xlink:href="#path-3"></use>
        </mask>
        <g id="ðŸ’¡States-"></g>
        <g id="Icons/QR" mask="url(#mask-4)">
            <g transform="translate(16.000000, 16.000000)" id="Group-11">
                <path d="M6,9 L9,9 L9,6 L6,6 L6,9 Z M10,11 L5,11 C4.4,11 4,10.6 4,10 L4,5 C4,4.4 4.4,4 5,4 L10,4 C10.6,4 11,4.4 11,5 L11,10 C11,10.6 10.6,11 10,11 L10,11 Z" id="Fill-1" fill="#001D38"></path>
                <path d="M6,18 L9,18 L9,15 L6,15 L6,18 Z M10,20 L5,20 C4.4,20 4,19.6 4,19 L4,14 C4,13.4 4.4,13 5,13 L10,13 C10.6,13 11,13.4 11,14 L11,19 C11,19.6 10.6,20 10,20 L10,20 Z" id="Fill-3" fill="#001D38"></path>
                <path d="M15,9 L18,9 L18,6 L15,6 L15,9 Z M19,11 L14,11 C13.4,11 13,10.6 13,10 L13,5 C13,4.4 13.4,4 14,4 L19,4 C19.6,4 20,4.4 20,5 L20,10 C20,10.6 19.6,11 19,11 L19,11 Z" id="Fill-4" fill="#001D38"></path>
                <polygon id="Fill-5" fill="#001D38" points="7 8 8 8 8 7 7 7"></polygon>
                <polygon id="Fill-6" fill="#001D38" points="7 17 8 17 8 16 7 16"></polygon>
                <polygon id="Fill-7" fill="#001D38" points="13 20 20 20 20 18 13 18"></polygon>
                <path d="M20,17 L18,17 L18,15 L15,15 L15,13 L19,13 C19.6,13 20,13.4 20,14 L20,17 Z" id="Fill-8" fill="#001D38"></path>
                <polygon id="Fill-9" fill="#001D38" points="16 17 17 17 17 16 16 16"></polygon>
                <polygon id="Fill-10" fill="#001D38" points="16 8 17 8 17 7 16 7"></polygon>
                <rect id="Rectangle" stroke-opacity="0" stroke="#001D38" x="0" y="0" width="24" height="24"></rect>
            </g>
        </g>
    </g>
</svg>