<?xml version="1.0" encoding="UTF-8"?>
<svg width="360px" height="38px" viewBox="0 0 360 38" version="1.1" xmlns="http://www.w3.org/2000/svg" xmlns:xlink="http://www.w3.org/1999/xlink">
    <title>Fill 1</title>
    <defs>
        <linearGradient x1="50%" y1="0%" x2="50%" y2="78.2886668%" id="linearGradient-1">
            <stop stop-color="#427397" stop-opacity="0.254534528" offset="0%"></stop>
            <stop stop-color="#1F3F5E" stop-opacity="0" offset="100%"></stop>
        </linearGradient>
    </defs>
    <g id="Templates" stroke="none" stroke-width="1" fill="none" fill-rule="evenodd">
        <g id="Templates-/-Shared-receipt" transform="translate(0.000000, -676.000000)" fill="url(#linearGradient-1)">
            <polygon id="Fill-1" points="359.333264 676 351.428369 683.906266 343.525903 676 335.624652 683.906266 327.723401 676 319.823364 683.906266 311.922113 676 304.023291 683.906266 296.122039 676 288.224431 683.906266 280.324395 676 272.425572 683.907254 264.530393 676 256.629142 683.906266 248.731534 676 240.836355 683.907254 232.942391 676 225.039925 683.906266 217.144746 676 209.243495 683.906266 201.344673 676 193.444636 683.906266 185.543385 676 177.645777 683.906266 169.744526 676 161.844489 683.906266 153.948095 676 146.048059 683.906266 138.148022 676 130.250414 683.906266 122.351592 676 114.449126 683.906266 106.551518 676 98.6551248 683.906266 90.7550881 676 82.8550513 683.906266 74.9586579 676 67.0598356 683.906266 59.1634422 676 51.2634054 683.906266 43.3645831 676 35.4681897 683.907254 27.5717963 676 19.6741884 683.906266 11.7753661 676 3.87654379 683.906266 0 680.025781 0 724 360 724 360 676.667175"></polygon>
        </g>
    </g>
</svg>