<?xml version="1.0" encoding="UTF-8"?>
<svg width="24px" height="24px" viewBox="0 0 24 24" version="1.1" xmlns="http://www.w3.org/2000/svg" xmlns:xlink="http://www.w3.org/1999/xlink">
    <title>Group 2</title>
    <g id="Pay" stroke="none" stroke-width="1" fill="none" fill-rule="evenodd">
        <g id="Landing-Page-/-All-Services" transform="translate(-210, -488)">
            <g id="Group-2" transform="translate(210, 488)">
                <rect id="Rectangle" x="0" y="0" width="24" height="24"></rect>
                <g id="Group" transform="translate(2, 0)" fill="#FFB684">
                    <path d="M14,4.23136247 C14,-1.10539846 10.4888889,-5.48586118 6,-6 L6,-3.92287918 C9.50222222,-3.41902314 12.2222222,0.0462724936 12.2222222,4.23136247 C12.2222222,6.82262211 11.1822222,9.12596401 9.55555556,10.6375321 L9.55555556,7.83033419 L7.77777778,7.83033419 L7.77777778,14 L13.1111111,14 L13.1111111,11.9434447 L10.9777778,11.9434447 C12.8266667,10.0616967 14,7.3059126 14,4.23136247 L14,4.23136247 Z" id="Path" transform="translate(10, 4) rotate(-90) translate(-10, -4)"></path>
                    <path d="M7.77777778,17.7686375 C7.77777778,15.1773779 8.81777778,12.8637532 10.4444444,11.3624679 L10.4444444,14.1696658 L12.2222222,14.1696658 L12.2222222,8 L6.88888889,8 L6.88888889,10.0565553 L9.02222222,10.0565553 C7.17333333,11.9383033 6,14.6940874 6,17.7686375 C6,23.1053985 9.51111111,27.4858612 14,28 L14,25.9228792 C10.4977778,25.4190231 7.77777778,21.9537275 7.77777778,17.7686375 L7.77777778,17.7686375 Z" id="Path" transform="translate(10, 18) rotate(-90) translate(-10, -18)"></path>
                    <path d="M10.2298625,10.2666667 C8.89194499,9.87333333 8.46168959,9.46666667 8.46168959,8.83333333 C8.46168959,8.10666667 9.05697446,7.6 10.0530452,7.6 C11.1021611,7.6 11.4911591,8.16666667 11.5265226,9 L12.8290766,9 C12.7878193,7.85333333 12.1689587,6.8 10.9371316,6.46 L10.9371316,5 L9.16895874,5 L9.16895874,6.44 C8.02554028,6.72 7.10609037,7.56 7.10609037,8.84666667 C7.10609037,10.3866667 8.23182711,11.1533333 9.8762279,11.6 C11.3497053,12 11.6444008,12.5866667 11.6444008,13.2066667 C11.6444008,13.6666667 11.3555992,14.4 10.0530452,14.4 C8.8388998,14.4 8.36149312,13.7866667 8.29666012,13 L7,13 C7.07072692,14.46 8.03732809,15.28 9.16895874,15.5533333 L9.16895874,17 L10.9371316,17 L10.9371316,15.5666667 C12.086444,15.32 13,14.5666667 13,13.2 C13,11.3066667 11.56778,10.66 10.2298625,10.2666667 Z" id="Icon-Copy" stroke="#FFB684" stroke-width="0.3"></path>
                </g>
            </g>
        </g>
    </g>
</svg>