<?xml version="1.0" encoding="UTF-8"?>
<svg width="24px" height="24px" viewBox="0 0 24 24" version="1.1" xmlns="http://www.w3.org/2000/svg" xmlns:xlink="http://www.w3.org/1999/xlink">
    <title>Icons / Filled / Action / accessibility Copy 3@2x</title>
    <g id="Credit-card" stroke="none" stroke-width="1" fill="none" fill-rule="evenodd">
        <g id="Credit-card-/-Value-prop-promo-/-PT-BR" transform="translate(-20, -250)">
            <g id="Icons-/-Filled-/-Action-/-accessibility-Copy-3" transform="translate(20, 250)">
                <rect id="Icon-Bounds" x="0" y="0" width="24" height="24"></rect>
                <path d="M6.5,5 C7.329,5 8,5.671 8,6.5 C8,7.329 7.329,8 6.5,8 C5.671,8 5,7.329 5,6.5 C5,5.671 5.671,5 6.5,5 L6.5,5 Z M12.83,20 L4,11.17 L4,4 L11.17,4 L20,12.83 L12.83,20 Z M21.41,11.41 L12.58,2.58 C12.21,2.21 11.7,2 11.17,2 L4,2 C2.9,2 2,2.9 2,4 L2,11.17 C2,11.7 2.21,12.21 2.59,12.58 L11.42,21.41 C12.2,22.19 13.47,22.19 14.25,21.41 L21.42,14.24 C22.2,13.46 22.2,12.2 21.41,11.41 L21.41,11.41 Z" id="ðŸ“-Icon" fill="#FFB684"></path>
            </g>
        </g>
    </g>
</svg>