<svg width="247" height="247" viewBox="0 0 247 247" fill="none" xmlns="http://www.w3.org/2000/svg">
<circle cx="120" cy="126" r="91" fill="#426B8E"/>
<g style="mix-blend-mode:darken" opacity="0.495935">
<path d="M174.907 127.133C175.418 127.745 175.887 128.369 176.315 129.003L177.558 128.163C178.321 129.292 178.965 130.453 179.496 131.635L178.128 132.25C178.778 133.695 179.246 135.172 179.546 136.658L181.017 136.361C181.282 137.676 181.425 138.997 181.452 140.312L179.952 140.343C179.985 141.902 179.843 143.452 179.541 144.966L181.012 145.26C180.752 146.564 180.381 147.842 179.906 149.08L178.506 148.542C177.949 149.994 177.24 151.385 176.393 152.689L177.651 153.506C176.929 154.617 176.113 155.669 175.211 156.646L174.109 155.629C173.061 156.763 171.89 157.789 170.61 158.678L171.466 159.91C170.387 160.661 169.234 161.322 168.014 161.88L167.39 160.516C166.011 161.147 164.541 161.636 162.99 161.96L163.297 163.428C162.028 163.693 160.71 163.854 159.349 163.901L159.298 162.401C158.533 162.428 157.753 162.415 156.957 162.362L153.837 162.151L153.736 163.648L148.743 163.312L148.843 161.815L145.723 161.605C144.855 161.547 143.989 161.535 143.128 161.568L143.186 163.067C141.882 163.118 140.59 163.279 139.322 163.547L139.012 162.079C137.318 162.437 135.666 162.974 134.085 163.68L134.696 165.05C133.514 165.578 132.373 166.207 131.288 166.933L130.454 165.686C129.738 166.165 129.045 166.684 128.377 167.241L125.976 169.245L126.937 170.397L123.095 173.604L122.134 172.452L119.733 174.457C119.121 174.967 118.497 175.436 117.863 175.865L118.702 177.107C117.574 177.87 116.413 178.514 115.231 179.045L114.616 177.677C113.171 178.327 111.694 178.795 110.208 179.096L110.504 180.566C109.19 180.831 107.869 180.974 106.554 181.001L106.522 179.502C104.964 179.534 103.414 179.393 101.899 179.091L101.606 180.562C100.302 180.302 99.0236 179.93 97.7861 179.456L98.3234 178.055C96.8721 177.498 95.4806 176.789 94.1769 175.942L93.3598 177.2C92.2483 176.478 91.1965 175.662 90.2195 174.76L91.2372 173.658C90.1025 172.61 89.0771 171.439 88.1873 170.159L86.9558 171.016C86.205 169.936 85.5437 168.783 84.9858 167.564L86.3499 166.94C85.719 165.56 85.2298 164.09 84.9061 162.539L83.4377 162.846C83.1729 161.577 83.0117 160.26 82.9652 158.898L84.4643 158.847C84.4382 158.083 84.4506 157.302 84.5042 156.507L84.7143 153.386L83.2176 153.285L83.5538 148.292L85.0504 148.393L85.2605 145.272C85.3189 144.405 85.3309 143.539 85.2975 142.678L83.7986 142.736C83.7481 141.431 83.5868 140.139 83.3191 138.872L84.7866 138.562C84.4286 136.867 83.8919 135.215 83.1856 133.634L81.816 134.246C81.2878 133.063 80.6586 131.923 79.9327 130.838L81.1794 130.004C80.7003 129.287 80.1817 128.594 79.6247 127.927L77.6204 125.525L76.4688 126.487L73.2619 122.645L74.4135 121.683L72.4091 119.282C71.8982 118.67 71.4294 118.046 71.0012 117.412L69.7582 118.252C68.9957 117.123 68.3516 115.962 67.8202 114.78L69.1883 114.165C68.5388 112.72 68.0702 111.243 67.7701 109.757L66.2997 110.054C66.0344 108.739 65.8916 107.418 65.8643 106.103L67.364 106.072C67.3316 104.513 67.4729 102.963 67.775 101.449L66.3039 101.155C66.564 99.8513 66.9353 98.5729 67.4102 97.3354L68.8106 97.8727C69.3675 96.4214 70.0765 95.0299 70.9233 93.7262L69.6654 92.9091C70.3875 91.7976 71.2035 90.7458 72.1057 89.7688L73.2077 90.7865C74.2555 89.6518 75.4264 88.6264 76.7062 87.7366L75.8499 86.5051C76.9297 85.7543 78.0829 85.093 79.3021 84.5351L79.9262 85.8992C81.3052 85.2682 82.7756 84.7791 84.3263 84.4554L84.0198 82.987C85.2882 82.7222 86.606 82.561 87.9673 82.5145L88.0185 84.0136C88.783 83.9875 89.5635 83.9999 90.359 84.0535L93.4798 84.2636L93.5806 82.7669L98.5738 83.1031L98.4731 84.5997L101.594 84.8098C102.461 84.8682 103.327 84.8802 104.188 84.8468L104.13 83.3479C105.434 83.2974 106.727 83.1361 107.994 82.8684L108.304 84.3359C109.999 83.9779 111.65 83.4412 113.232 82.7349L112.62 81.3653C113.803 80.8371 114.943 80.2079 116.028 79.482L116.862 80.7287C117.578 80.2496 118.272 79.731 118.939 79.174L121.34 77.1697L120.379 76.0181L124.221 72.8112L125.182 73.9628L127.584 71.9584C128.196 71.4475 128.82 70.9787 129.454 70.5505L128.614 69.3075C129.743 68.545 130.904 67.9009 132.085 67.3696L132.7 68.7376C134.145 68.0881 135.622 67.6195 137.109 67.3194L136.812 65.8491C138.126 65.5837 139.448 65.4409 140.763 65.4136L140.794 66.9133C142.352 66.8809 143.902 67.0222 145.417 67.3243L145.71 65.8532C147.014 66.1133 148.293 66.4846 149.53 66.9595L148.993 68.3599C150.444 68.9168 151.836 69.6258 153.139 70.4727L153.957 69.2148C155.068 69.9368 156.12 70.7528 157.097 71.655L156.079 72.757C157.214 73.8048 158.239 74.9757 159.129 76.2555L160.361 75.3992C161.111 76.4791 161.773 77.6322 162.331 78.8514L160.967 79.4755C161.597 80.8545 162.087 82.3249 162.41 83.8756L163.879 83.5691C164.143 84.8376 164.305 86.1553 164.351 87.5166L162.852 87.5678C162.878 88.3323 162.866 89.1128 162.812 89.9083L162.602 93.0291L164.099 93.1299L163.763 98.1231L162.266 98.0224L162.056 101.143C161.998 102.01 161.986 102.876 162.019 103.737L163.518 103.679C163.568 104.984 163.73 106.276 163.997 107.543L162.53 107.853C162.888 109.548 163.425 111.2 164.131 112.781L165.5 112.169C166.029 113.352 166.658 114.492 167.384 115.577L166.137 116.411C166.616 117.128 167.135 117.821 167.692 118.488L169.696 120.89L170.848 119.928L174.054 123.77L172.903 124.732L174.907 127.133Z" stroke="#394E6C" stroke-width="3" stroke-linejoin="round" stroke-dasharray="5 4"/>
</g>
<path fill-rule="evenodd" clip-rule="evenodd" d="M112.831 167.336C110.054 165.985 107.122 164.975 104.102 164.33V164.33C79.8483 159.15 66.8915 132.585 77.7414 110.284V110.284C79.0928 107.506 80.1021 104.575 80.7473 101.554V101.554C85.9273 77.3005 112.587 64.3893 134.888 75.2393V75.2393C137.597 76.5575 140.465 77.5463 143.412 78.1757L155.692 80.7984C173.568 84.6164 182.901 104.407 174.474 120.629V120.629L169.26 133.064C168.321 135.302 167.594 137.622 167.087 139.995L166.878 140.976C161.698 165.229 135.132 178.186 112.831 167.336V167.336Z" fill="#507FA2"/>
<path fill-rule="evenodd" clip-rule="evenodd" d="M89 171C89 176.5 93.0408 181 97.9796 181H142.878C147.816 181 151.857 176.5 151.857 171V80.9999C151.857 75.4999 147.816 70.9999 142.878 70.9999H97.9796C93.0408 70.9999 89 75.4999 89 80.9999V171Z" fill="#293455"/>
<path fill-rule="evenodd" clip-rule="evenodd" d="M95.4706 166.21H144.462V85.7899H95.4706V166.21Z" fill="#405172"/>
<path fill-rule="evenodd" clip-rule="evenodd" d="M138.916 128H125.397V109.975H116.384V128H102.866L120.891 146.025L138.916 128Z" fill="#77F8DE"/>
<rect x="151.714" y="97.3541" width="2.28571" height="17.1875" rx="1.14286" fill="#243051"/>
</svg>
