<svg width="16" height="24" viewBox="0 0 16 24" xmlns="http://www.w3.org/2000/svg" fill="#FFB684">
  <path d="M2.228 24c-.573 0-1.087-.218-1.543-.655-.457-.437-.685-.943-.685-1.52V2.175c0-.577.228-1.083.685-1.52C1.14.218 1.655 0 2.228 0h11.544c.573 0 1.087.218 1.543.655.457.437.685.943.685 1.52v19.65c0 .577-.228 1.083-.685 1.52-.456.437-.97.655-1.543.655H2.228Zm0-4.507v2.332h11.544v-2.332H2.228ZM8 21.485c.233 0 .43-.083.59-.25a.818.818 0 0 0 .242-.589.716.716 0 0 0-.255-.563A.854.854 0 0 0 8 19.86a.814.814 0 0 0-.59.236.775.775 0 0 0-.242.576c0 .228.085.42.255.577.17.157.362.236.577.236Zm-5.772-3.668h11.544V4.585H2.228v13.232Zm0-14.909h11.544v-.733H2.228v.733Zm0 16.585v2.332-2.332Zm0-16.585v-.733.733Z"/>
</svg>