<?xml version="1.0" encoding="UTF-8"?>
<svg width="224px" height="79px" viewBox="0 0 224 79" version="1.1" xmlns="http://www.w3.org/2000/svg" xmlns:xlink="http://www.w3.org/1999/xlink">
    <title>Group 32</title>
    <defs>
        <polygon id="path-1" points="0 78 224 78 224 0 0 0"></polygon>
    </defs>
    <g id="Conta-Digital-Screens-(option)" stroke="none" stroke-width="1" fill="none" fill-rule="evenodd">
        <g id="Onboarding-/-Log_in" transform="translate(-68.000000, -48.000000)">
            <g id="Group-32" transform="translate(68.000000, 48.400000)">
                <polygon id="Fill-1" fill="#FFFFFF" points="74.278 63.006 75.808 63.006 75.808 14.83 74.278 14.83"></polygon>
                <g id="Group-31">
                    <path d="M44.5044,50.466 C42.3014,43.338 39.4884,39.001 36.2794,39.001 C33.6684,39.001 31.2444,41.926 29.2354,46.934 C27.2304,41.931 24.8034,39.001 22.1654,39.001 C18.9894,39.001 16.1754,43.328 13.9624,50.466 L12.3254,50.466 L21.9974,20.861 L29.2224,42.976 L36.4484,20.861 L46.1204,50.466 C46.1204,50.466 44.5044,50.466 44.5044,50.466 M29.2194,14.829 C15.7944,14.829 4.9194,25.648 4.9194,39 C4.9194,52.348 15.7944,63.171 29.2194,63.171 C42.6414,63.171 53.5284,52.348 53.5284,39 C53.5284,25.727 42.8194,14.829 29.2194,14.829" id="Fill-2" fill="#FFFFFF"></path>
                    <path d="M102.6419,35.4499 C104.8459,35.4499 106.1499,34.4569 107.1339,33.4859 L107.4129,33.2109 L106.3319,32.1629 L106.0649,32.4249 C104.9519,33.5229 103.9689,33.9709 102.6729,33.9709 C100.3659,33.9709 98.5589,32.0369 98.5589,29.5379 C98.5589,27.0449 100.3209,25.1659 102.6569,25.1659 C104.2549,25.1659 105.2309,25.9019 105.9769,26.6229 L106.2509,26.8879 L107.3539,25.7539 L107.0629,25.4879 C106.0419,24.5529 104.8029,23.6859 102.6729,23.6859 C99.4769,23.6859 96.9729,26.2699 96.9729,29.5679 L96.9729,29.5989 C96.9729,32.9349 99.4099,35.4499 102.6419,35.4499" id="Fill-4" fill="#FFFFFF"></path>
                    <path d="M113.62,33.9706 C111.288,33.9706 109.461,32.0366 109.461,29.5376 C109.461,27.0456 111.236,25.1656 113.59,25.1656 C115.922,25.1656 117.75,27.0996 117.75,29.5676 L117.75,29.5986 C117.75,32.0906 115.975,33.9706 113.62,33.9706 M119.334,29.5376 C119.334,26.2016 116.877,23.6866 113.62,23.6866 C110.398,23.6866 107.875,26.2696 107.875,29.5676 L107.875,29.5986 C107.875,32.9346 110.332,35.4496 113.59,35.4496 C116.811,35.4496 119.334,32.8656 119.334,29.5376" id="Fill-6" fill="#FFFFFF"></path>
                    <polygon id="Fill-8" fill="#FFFFFF" points="122.7766 26.5343 129.6976 35.2673 130.8586 35.2673 130.8586 23.8683 129.3336 23.8683 129.3336 32.4043 122.5636 23.8683 121.2526 23.8683 121.2526 35.2673 122.7766 35.2673"></polygon>
                    <polygon id="Fill-10" fill="#FFFFFF" points="136.1948 35.2676 137.7488 35.2676 137.7488 25.3626 141.4568 25.3626 141.4568 23.8686 132.4868 23.8686 132.4868 25.3626 136.1948 25.3626"></polygon>
                    <path d="M144.2935,30.8108 L146.5065,25.9638 L148.7095,30.8108 L144.2935,30.8108 Z M150.7435,35.2678 L152.4535,35.2678 L147.1485,23.7928 L145.8985,23.7928 L140.5925,35.2678 L142.2575,35.2678 L143.6095,32.2898 L149.3905,32.2898 L150.7435,35.2678 Z" id="Fill-12" fill="#FFFFFF"></path>
                    <path d="M159.8255,25.3629 L162.1925,25.3629 C164.8115,25.3629 166.6415,27.0919 166.6415,29.5989 C166.6415,32.0569 164.8115,33.7739 162.1925,33.7739 L159.8255,33.7739 L159.8255,25.3629 Z M162.1925,23.8689 L158.2695,23.8689 L158.2695,35.2679 L162.1925,35.2679 C165.6875,35.2679 168.2255,32.8699 168.2255,29.5379 C168.2255,26.2529 165.6875,23.8689 162.1925,23.8689 L162.1925,23.8689 Z" id="Fill-14" fill="#FFFFFF"></path>
                    <mask id="mask-2" fill="white">
                        <use xlink:href="#path-1"></use>
                    </mask>
                    <g id="Clip-17"></g>
                    <polygon id="Fill-16" fill="#FFFFFF" mask="url(#mask-2)" points="170.249 35.268 171.805 35.268 171.805 23.869 170.249 23.869"></polygon>
                    <path d="M179.5632,35.4499 C181.1692,35.4499 182.7852,34.8329 183.9952,33.7589 L184.1232,33.6439 L184.1232,28.9879 L179.0432,28.9879 L179.0432,30.4819 L182.5982,30.4819 L182.5982,32.9709 C181.9332,33.4799 180.8362,33.9869 179.5932,33.9869 C177.0972,33.9869 175.4192,32.2109 175.4192,29.5379 C175.4192,27.0859 177.1792,25.1659 179.4262,25.1659 C181.0182,25.1659 181.8892,25.7339 182.5932,26.3479 L182.8812,26.5989 L183.9062,25.4219 L183.6042,25.1719 C182.3312,24.1169 181.1342,23.6859 179.4712,23.6859 C175.9422,23.6859 173.8332,26.6769 173.8332,29.5679 L173.8332,29.5989 C173.8332,33.0439 176.1892,35.4499 179.5632,35.4499" id="Fill-18" fill="#FFFFFF" mask="url(#mask-2)"></path>
                    <polygon id="Fill-19" fill="#FFFFFF" mask="url(#mask-2)" points="186.315 35.268 187.869 35.268 187.869 23.869 186.315 23.869"></polygon>
                    <polygon id="Fill-20" fill="#FFFFFF" mask="url(#mask-2)" points="198.5778 23.8687 189.6088 23.8687 189.6088 25.3627 193.3158 25.3627 193.3158 35.2677 194.8698 35.2677 194.8698 25.3627 198.5778 25.3627"></polygon>
                    <path d="M201.4148,30.8108 L203.6268,25.9638 L205.8298,30.8108 L201.4148,30.8108 Z M203.0188,23.7928 L197.7128,35.2678 L199.3778,35.2678 L200.7308,32.2898 L206.5118,32.2898 L207.8648,35.2678 L209.5738,35.2678 L204.2688,23.7928 L203.0188,23.7928 Z" id="Fill-21" fill="#FFFFFF" mask="url(#mask-2)"></path>
                    <polygon id="Fill-22" fill="#FFFFFF" mask="url(#mask-2)" points="212.3904 33.7734 212.3904 23.8684 210.8364 23.8684 210.8364 35.2674 218.6344 35.2674 218.6344 33.7734"></polygon>
                    <polygon id="Fill-23" fill="#FFFFFF" mask="url(#mask-2)" points="102.8396 48.9243 98.7736 42.9343 97.4436 42.9343 97.4436 54.3333 98.9686 54.3333 98.9686 45.9473 102.4786 51.0543 102.6536 51.2193 103.0566 51.2193 106.6806 45.9473 106.6806 54.3333 108.2356 54.3333 108.2356 42.9343 106.9056 42.9343"></polygon>
                    <path d="M115.8972,53.0365 C113.5652,53.0365 111.7382,51.1015 111.7382,48.6035 C111.7382,46.1115 113.5132,44.2315 115.8672,44.2315 C118.2002,44.2315 120.0272,46.1655 120.0272,48.6335 L120.0272,48.6645 C120.0272,51.1565 118.2522,53.0365 115.8972,53.0365 M115.8972,42.7525 C112.6762,42.7525 110.1532,45.3355 110.1532,48.6335 L110.1532,48.6645 C110.1532,52.0005 112.6092,54.5155 115.8672,54.5155 C119.0892,54.5155 121.6132,51.9315 121.6132,48.6035 C121.6132,45.2675 119.1552,42.7525 115.8972,42.7525" id="Fill-24" fill="#FFFFFF" mask="url(#mask-2)"></path>
                    <polygon id="Fill-25" fill="#FFFFFF" mask="url(#mask-2)" points="121.9359 44.4287 125.6419 44.4287 125.6419 54.3337 127.1979 54.3337 127.1979 44.4287 130.9029 44.4287 130.9029 42.9347 121.9359 42.9347"></polygon>
                    <path d="M136.9728,53.0365 C134.6408,53.0365 132.8138,51.1015 132.8138,48.6035 C132.8138,46.1115 134.5888,44.2315 136.9418,44.2315 C139.2748,44.2315 141.1018,46.1655 141.1018,48.6335 L141.1018,48.6645 C141.1018,51.1565 139.3268,53.0365 136.9728,53.0365 M136.9728,42.7525 C133.7508,42.7525 131.2278,45.3355 131.2278,48.6335 L131.2278,48.6645 C131.2278,52.0005 133.6848,54.5155 136.9418,54.5155 C140.1638,54.5155 142.6878,51.9315 142.6878,48.6035 C142.6878,45.2675 140.2308,42.7525 136.9728,42.7525" id="Fill-26" fill="#FFFFFF" mask="url(#mask-2)"></path>
                    <path d="M146.1603,44.4287 L149.4073,44.4287 C151.1053,44.4287 152.0793,45.1357 152.0793,46.4007 C152.0793,47.6457 151.0123,48.4487 149.3623,48.4487 L146.1603,48.4487 L146.1603,44.4287 Z M153.6333,46.3407 C153.6333,45.4947 153.2983,44.6757 152.7173,44.0937 C151.9693,43.3467 150.8093,42.9347 149.4533,42.9347 L144.6043,42.9347 L144.6043,54.3337 L146.1603,54.3337 L146.1603,49.9287 L149.0683,49.9287 L152.4553,54.3337 L154.4253,54.3337 L150.8203,49.6677 C152.5943,49.2277 153.6333,48.0257 153.6333,46.3407 L153.6333,46.3407 Z" id="Fill-27" fill="#FFFFFF" mask="url(#mask-2)"></path>
                    <path d="M160.8575,53.0365 C158.5245,53.0365 156.6975,51.1015 156.6975,48.6035 C156.6975,46.1115 158.4725,44.2315 160.8265,44.2315 C163.1585,44.2315 164.9855,46.1655 164.9855,48.6335 L164.9855,48.6645 C164.9855,51.1565 163.2105,53.0365 160.8575,53.0365 M160.8575,42.7525 C157.6355,42.7525 155.1115,45.3355 155.1115,48.6335 L155.1115,48.6645 C155.1115,52.0005 157.5685,54.5155 160.8265,54.5155 C164.0485,54.5155 166.5715,51.9315 166.5715,48.6035 C166.5715,45.2675 164.1145,42.7525 160.8575,42.7525" id="Fill-28" fill="#FFFFFF" mask="url(#mask-2)"></path>
                    <polygon id="Fill-29" fill="#FFFFFF" mask="url(#mask-2)" points="170.044 42.9345 168.489 42.9345 168.489 54.3335 176.288 54.3335 176.288 52.8395 170.044 52.8395"></polygon>
                    <path d="M180.4617,49.8767 L182.6737,45.0307 L184.8767,49.8767 L180.4617,49.8767 Z M182.0657,42.8587 L176.7597,54.3337 L178.4247,54.3337 L179.7777,51.3557 L185.5587,51.3557 L186.9117,54.3337 L188.6207,54.3337 L183.3157,42.8587 L182.0657,42.8587 Z" id="Fill-30" fill="#FFFFFF" mask="url(#mask-2)"></path>
                </g>
            </g>
        </g>
    </g>
</svg>