<?xml version="1.0" encoding="UTF-8"?>
<svg width="17px" height="18px" viewBox="0 0 17 18" version="1.1" xmlns="http://www.w3.org/2000/svg" xmlns:xlink="http://www.w3.org/1999/xlink">
    <title>Icons / Filled / Communication / swap calls 3</title>
    <g id="Pix" stroke="none" stroke-width="1" fill="none" fill-rule="evenodd">
        <g id="Icons-/-Filled-/-Communication-/-swap-calls" transform="translate(-4.000000, -3.000000)">
            <rect id="Icon-Bounds" x="0" y="0" width="24" height="24"></rect>
            <path d="M19.5898,12.52 L13.9298,18.17 L11.0998,15.34 L9.6898,16.76 L13.9298,21 L20.9998,13.93 L19.5898,12.52 Z M10.9998,13 L10.9998,9 C10.9998,8.45 10.5498,8 9.9998,8 L5.9998,8 L5.9998,6 L10.9998,6 L10.9998,4 L8.4998,4 L8.4998,3 L6.4998,3 L6.4998,4 L4.9998,4 C4.4498,4 3.9998,4.45 3.9998,5 L3.9998,9 C3.9998,9.55 4.4498,10 4.9998,10 L8.9998,10 L8.9998,12 L3.9998,12 L3.9998,14 L6.4998,14 L6.4998,15 L8.4998,15 L8.4998,14 L9.9998,14 C10.5498,14 10.9998,13.55 10.9998,13 L10.9998,13 Z" id="🎨-Icon-|-Color" fill="#FFB684"></path>
        </g>
    </g>
</svg>